<svg id="Layer_1" data-name="Layer 1" xmlns="http://www.w3.org/2000/svg" xmlns:xlink="http://www.w3.org/1999/xlink" viewBox="0 0 369.39 327.32" width="406" height="306" class="illustration styles_illustrationTablet__1DWOa"><defs><linearGradient id="linear-gradient" x1="13.54" y1="114.4" x2="214" y2="-37.84" gradientUnits="userSpaceOnUse"><stop offset="0.01"></stop><stop offset="0.13" stop-opacity="0.69"></stop><stop offset="0.25" stop-opacity="0.32"></stop><stop offset="1" stop-opacity="0"></stop></linearGradient><linearGradient id="linear-gradient-2" x1="-90.52" y1="279.97" x2="406.18" y2="-13.1" xlink:href="#linear-gradient"></linearGradient><linearGradient id="linear-gradient-3" x1="359.4" y1="119.81" x2="125.32" y2="-84.77" xlink:href="#linear-gradient"></linearGradient><linearGradient id="linear-gradient-4" x1="424.18" y1="186.25" x2="-32.56" y2="122.5" xlink:href="#linear-gradient"></linearGradient><linearGradient id="linear-gradient-5" x1="393.16" y1="135.03" x2="114.04" y2="262.54" xlink:href="#linear-gradient"></linearGradient><linearGradient id="linear-gradient-6" x1="408.63" y1="169.36" x2="198.34" y2="167.46" xlink:href="#linear-gradient"></linearGradient></defs><title>1</title><path d="M38,206.25c10.86-18.23,21.65-36.48,26.64-57,5.83-24,2.47-50.37,11.71-73.54C84,56.56,95.36,34,113.93,23.38c11.63-6.68,25.44-8.31,38.83-9,31.3-1.51,63.51,1.76,92.66,13.81,29.36,12.15,44.27,29.71,53.12,60.47,5.87,20.43,9.67,42.12,21.88,59.52,8.92,12.7,21.67,22.14,32.19,33.55,37.44,40.61,41.42,119.89-15.75,145.41-22.81,10.2-48.63,10.61-73.61,10.85l-130.53,1.25c-16.85.16-35.93,4.18-52.26.7a116.5,116.5,0,0,1-47.37-22.2C27,313,21.33,307.52,17.39,300.86c-12.93-21.86-4.27-50,7.76-72.38C29.19,221,33.59,213.61,38,206.25Z" transform="translate(-10.97 -14.08)" fill="#68e1fd" opacity="0.18" style="isolation: isolate;"></path><ellipse cx="180.55" cy="287.92" rx="136.07" ry="31.83" fill="#fff" opacity="0.47" style="isolation: isolate;"></ellipse><polygon points="246.02 304.42 210.26 304.42 176.85 271.01 118.7 271.01 126.74 285.34 86.56 285.34 86.56 284.34 125.03 284.34 117 270.01 177.26 270.01 210.68 303.42 243.43 303.42 225.75 287.42 257.47 287.42 247.27 277.21 247.97 276.51 259.89 288.42 228.34 288.42 246.02 304.42" fill="#68e1fd"></polygon><polygon points="201.95 313.3 179.34 290.69 197.74 290.69 197.74 291.69 181.75 291.69 202.66 312.59 201.95 313.3" fill="#68e1fd"></polygon><polygon points="165.48 306.68 160.12 298.45 123.07 298.45 114.89 285.1 115.74 284.57 123.63 297.45 160.66 297.45 166.32 306.13 165.48 306.68" fill="#68e1fd"></polygon><polygon points="93.41 298.45 76.98 298.45 76.98 297.45 91.85 297.45 84.14 280.6 85.05 280.19 93.41 298.45" fill="#68e1fd"></polygon><path d="M258.74,291.49c-1.83,0-4.94-.38-4.94-1.81s3.11-1.82,4.94-1.82,4.94.38,4.94,1.82S260.58,291.49,258.74,291.49Zm0-2.63c-2.34,0-3.81.55-4,.85.14.23,1.61.78,4,.78s3.72-.51,3.93-.81C262.46,289.38,261,288.86,258.74,288.86Z" transform="translate(-10.97 -14.08)" fill="#68e1fd"></path><path d="M213.64,330.16c-1.83,0-4.94-.38-4.94-1.82s3.11-1.82,4.94-1.82,4.94.39,4.94,1.82S215.48,330.16,213.64,330.16Zm0-2.64c-2.34,0-3.81.55-3.94.85.13.24,1.6.79,3.94.79s3.72-.52,3.93-.82C217.36,328,215.91,327.52,213.64,327.52Z" transform="translate(-10.97 -14.08)" fill="#68e1fd"></path><path d="M177.77,323.62c-1.84,0-4.94-.39-4.94-1.82s3.1-1.82,4.94-1.82,4.94.39,4.94,1.82S179.6,323.62,177.77,323.62Zm0-2.64c-2.34,0-3.81.55-4,.85.14.24,1.61.79,4,.79s3.72-.52,3.93-.82C181.49,321.5,180,321,177.77,321Z" transform="translate(-10.97 -14.08)" fill="#68e1fd"></path><path d="M84.4,313.84c-1.84,0-4.94-.38-4.94-1.82s3.1-1.81,4.94-1.81,4.94.38,4.94,1.81S86.23,313.84,84.4,313.84Zm0-2.63c-2.34,0-3.81.55-4,.84.14.24,1.61.79,4,.79s3.72-.51,3.93-.82C88.12,311.72,86.67,311.21,84.4,311.21Z" transform="translate(-10.97 -14.08)" fill="#68e1fd"></path><path d="M95.77,295c-1.83,0-4.94-.39-4.94-1.82s3.11-1.82,4.94-1.82,4.94.38,4.94,1.82S97.61,295,95.77,295Zm0-2.64c-2.34,0-3.81.55-3.94.85.13.23,1.6.79,3.94.79s3.72-.52,3.93-.82C99.49,292.84,98,292.32,95.77,292.32Z" transform="translate(-10.97 -14.08)" fill="#68e1fd"></path><path d="M142.11,299.41a3.82,3.82,0,0,0-2,1.86c-1,2.64,3.32,4.91,2.72,7.67-.73,3.28-6.48,1.84-8.47,4.55-1.28,1.73-.19,4.37,1.65,5.49s4.12,1.12,6.27,1.1q36.44-.42,72.84-2.46c15.58-.87,31.55-2.05,45.73-8.56a5.17,5.17,0,0,0,2.82-2.27,4.36,4.36,0,0,0-.54-3.83c-3.61-6.43-12.28-7.48-19.65-7.77,1.21-3.3-1-7.06-4.1-8.78s-6.73-1.88-10.25-2L218.32,284c-4.44-.17-9.21-.24-12.88,2.24-3,2-4.75,5.41-7.51,7.71-6.44,5.35-16,3.4-24.11,1.44-5.41-1.31-11.55-2.45-17-.89-2.34.67-4.07,2.37-6.27,3.12C147.74,298.54,144.86,298,142.11,299.41Z" transform="translate(-10.97 -14.08)" fill="#020202" opacity="0.1"></path><path d="M163.61,279.12c-1.06,2.32-2.15,4.72-2.13,7.27a12.45,12.45,0,0,0,2.55,6.94,21.3,21.3,0,0,0,13.4,8.56,3.08,3.08,0,0,0,2.12-.16,2.71,2.71,0,0,0,1-1.25c1.21-2.64.59-5.75-.33-8.51s-2.16-5.5-2.12-8.41c.07-5.46,7.57-16.27-1.6-18.58C168.85,263,165.9,274.17,163.61,279.12Z" transform="translate(-10.97 -14.08)" fill="#ffbbab"></path><path d="M213.44,270.68c-.75,2.43-1.5,5-1.15,7.48a12.47,12.47,0,0,0,3.46,6.54,21.31,21.31,0,0,0,14.41,6.7,3.12,3.12,0,0,0,2.09-.44,2.69,2.69,0,0,0,.83-1.38c.85-2.78-.18-5.77-1.46-8.38s-2.87-5.17-3.22-8.06c-.66-5.42,5.34-17.13-4.06-18.2C216.49,254,215.05,265.46,213.44,270.68Z" transform="translate(-10.97 -14.08)" fill="#ffbbab"></path><path d="M198.77,176.5c6.27,5.71,12.38,11.63,18.22,17.78a152.44,152.44,0,0,1,10.07,11.94c4.78,6.16,6.55,11.12,6.82,19.08.41,11.8.8,23.74-1.65,35.29-.58,2.72-1.48,5.64-3.8,7.17-3.42,2.26-8.33.13-10.54-3.33s-2.48-7.76-2.8-11.86c-.7-8.85-1.66-18-3.86-26.67-1.26-4.94-5.48-6.46-9.51-9.13-7.63-5-20.32-11.77-24.07-20.62a151.05,151.05,0,0,1-6.3-19.88Z" transform="translate(-10.97 -14.08)" fill="#282328"></path><path d="M186.33,177.54q3.67,12.63,6.89,25.4c1.66,6.55,3.26,13.13,4.6,19.75,1.13,5.63,3.62,13.94,2.42,19.48a25.27,25.27,0,0,1-2.93,6.78l-12.84,23.11a10.74,10.74,0,0,1-2.91,3.77c-2.67,1.87-8.62-1.05-10.82-2.89s-2.82-4.38-2.68-7.18c.71-13.94,7.83-20.17,8.92-34.09,0,0-26.83-23.87-23.53-54S186.33,177.54,186.33,177.54Z" transform="translate(-10.97 -14.08)" fill="#282328"></path><path d="M223.24,130.21c-.17,2.91-1.11,5.45-3.64,6.29a4.11,4.11,0,0,1-.65.18c-4.65.93-10.75-2.61-15-5.7a58.36,58.36,0,0,1-5.08-4.13V95.72l22.62,23.16S223.56,125.1,223.24,130.21Z" transform="translate(-10.97 -14.08)" fill="#fff"></path><path d="M204,130.88A120.53,120.53,0,0,0,202,148c-.55,9.55-1.88,19-3.21,28.49-9,1.88-18.26,1.16-27.42-.23-3.2-.49-6.38-1.05-9.54-1.62-1.07-.19-2-.72-3.1-1-5.26-1.31-7.38-27.12-7.86-35.21q-.69-11.55-.47-23.11c.11-5.59.55-11.63,4.2-15.85,4.86-5.62,14.25-9.34,21.38-10.65a24.06,24.06,0,0,1,7-.39,29.84,29.84,0,0,1,9.51,3.23c3.54,1.75,6.69,3.23,8.43,6.73a47.78,47.78,0,0,1,3.95,12.75C206,117.73,205.26,124.4,204,130.88Z" transform="translate(-10.97 -14.08)" fill="#fff"></path><path d="M171.35,176.27c-3.2-.49-6.38-1.05-9.54-1.62-1.07-.19-2-.72-3.1-1-5.26-1.31-7.38-27.12-7.86-35.21l12.68-14.57S160,165.9,171.35,176.27Z" transform="translate(-10.97 -14.08)" fill="#020202" opacity="0.1"></path><path d="M187.68,82.18a5.18,5.18,0,0,1-3.28,1.64,17.56,17.56,0,0,1-3.16.06l-.59,0a.63.63,0,0,0-.43.08.67.67,0,0,0-.19.47,35.22,35.22,0,0,0-.12,6.33h0c0,.38.06.76.1,1.14a2.18,2.18,0,0,1-.1,1.19,2,2,0,0,1-1.28.84,9.34,9.34,0,0,1-2.86.49c-2.08,0-4-1.05-5.82-2.05a59,59,0,0,0-.57-10.79C168.71,77,167.5,72.33,168,67.7a9,9,0,0,1,1.9-5c1.67-1.87,4.36-2.48,6.87-2.47a17.38,17.38,0,0,1,9.43,2.58c1,.71,1.16,1.61,1.4,2.79.36,1.82.65,3.66.85,5.5q.35,3.15.39,6.33C188.86,79.07,188.76,80.9,187.68,82.18Z" transform="translate(-10.97 -14.08)" fill="#ffbbab"></path><path d="M184,63.86c-2.37.4-5,0-7.18.9-3.12,1.27-4.45,5.32-3.41,8.52-.9.33-1.06-1.3-1.76-2s-2.27.22-2.38,1.35a6.8,6.8,0,0,0,1,3.21,9.57,9.57,0,0,1,.42,6.31c-.14.49-.5,1.07-1,.94s-.84-1-1.14-1.33a13.18,13.18,0,0,0-1.57-1.6c-1.1-1-2.31-1.81-3.43-2.75-2-1.67-3.85-3.93-3.73-6.53a5.78,5.78,0,0,1,1-3,6.72,6.72,0,0,1,1.94-1.89c.32-.2.68-.42.75-.78a1.4,1.4,0,0,0-.07-.61c-.69-2.64.78-5.47,2.95-7.11A17.29,17.29,0,0,1,174,54.78c1.74-.31,3.5-.56,5.25-.76a11.81,11.81,0,0,0,4.21-1,11.64,11.64,0,0,0-1.39-2.69A13.88,13.88,0,0,1,185.58,52a5.61,5.61,0,0,0-.47-1.75c1.91.65,3.92,1.38,5.18,3a6.21,6.21,0,0,1,.18,7c-1.35,2.13-3.48,3-5.83,3.55Z" transform="translate(-10.97 -14.08)" fill="#fc682d"></path><path d="M181.24,83.88l-.59,0a.63.63,0,0,0-.43.08.67.67,0,0,0-.19.47,35.22,35.22,0,0,0-.12,6.33h0s-6-1.54-5.84-9a35.32,35.32,0,0,0,7.13,2.12Z" transform="translate(-10.97 -14.08)" fill="#e0a194"></path><path d="M254.06,104.65c-1.28.81-3,1-3.83,2.34-.95,1.51,0,3.44.21,5.21a7.5,7.5,0,0,1-1.54,5.46,8.69,8.69,0,0,1-1.24,1.33,11.58,11.58,0,0,1-7,2.59s-1.41-5.66-1.37-6.24c.17-2,1.54-3.82,1.76-5.89a65,65,0,0,1,.6-6.56,13.81,13.81,0,0,1,7.75-9.65c.49-.22,1.19-.35,1.46.12a1,1,0,0,1,.07.64v0c-.3,2.27-1.78,4.19-3.21,6a16.58,16.58,0,0,1,4.12-1.67c.64-.17,1.59-.07,1.6.59a1.16,1.16,0,0,1-.49.78l-3.86,3.46a12,12,0,0,1,4.86-.53,1.27,1.27,0,0,1,.76.26C255.19,103.4,254.67,104.27,254.06,104.65Z" transform="translate(-10.97 -14.08)" fill="#ffbbab"></path><path d="M254.06,104.65c-1.28.81-3,1-3.83,2.34-.95,1.51,0,3.44.21,5.21a7.5,7.5,0,0,1-1.54,5.46,7.27,7.27,0,0,1-1.44.67,1.64,1.64,0,0,1-1.11.09,1.43,1.43,0,0,1-.67-1.7,11,11,0,0,1,.86-1.8,4.43,4.43,0,0,0,.17-3.26,7,7,0,0,1-.83-2.66,4,4,0,0,1,.65-1.62l1.17-2a2.46,2.46,0,0,0,.4-1,.85.85,0,0,0-.43-.88,1.19,1.19,0,0,0-1.09.29c-.65.47-2.2,2.46-2,.61a11,11,0,0,1,1.35-3.55,39.77,39.77,0,0,1,4.39-6.31,4.66,4.66,0,0,1,.58-.6v0c-.3,2.27-1.78,4.19-3.21,6a16.58,16.58,0,0,1,4.12-1.67c.64-.17,1.59-.07,1.6.59a1.16,1.16,0,0,1-.49.78l-3.86,3.46a12,12,0,0,1,4.86-.53,1.27,1.27,0,0,1,.76.26C255.19,103.4,254.67,104.27,254.06,104.65Z" transform="translate(-10.97 -14.08)" fill="#e0a194"></path><path d="M98.37,103.38c1.28.81,3,1.05,3.83,2.34,1,1.51,0,3.44-.21,5.21a7.5,7.5,0,0,0,1.54,5.46,8.69,8.69,0,0,0,1.24,1.33,11.58,11.58,0,0,0,7,2.59s1.41-5.66,1.37-6.24c-.17-2-1.54-3.82-1.76-5.89a65,65,0,0,0-.6-6.56A13.81,13.81,0,0,0,103.07,92c-.49-.22-1.19-.35-1.46.12a1,1,0,0,0-.07.64v0c.3,2.27,1.78,4.19,3.21,6a16.58,16.58,0,0,0-4.12-1.67C100,96.92,99,97,99,97.68a1.16,1.16,0,0,0,.49.78l3.86,3.46a12,12,0,0,0-4.86-.53,1.27,1.27,0,0,0-.76.26C97.24,102.13,97.76,103,98.37,103.38Z" transform="translate(-10.97 -14.08)" fill="#ffbbab"></path><path d="M98.37,103.38c1.28.81,3,1.05,3.83,2.34,1,1.51,0,3.44-.21,5.21a7.5,7.5,0,0,0,1.54,5.46,7.27,7.27,0,0,0,1.44.67,1.64,1.64,0,0,0,1.11.09,1.43,1.43,0,0,0,.67-1.7,11,11,0,0,0-.86-1.8,4.43,4.43,0,0,1-.17-3.26,7,7,0,0,0,.83-2.66,4,4,0,0,0-.65-1.62l-1.17-2a2.46,2.46,0,0,1-.4-1,.85.85,0,0,1,.43-.88,1.19,1.19,0,0,1,1.09.29c.65.47,2.2,2.46,2,.61a11,11,0,0,0-1.35-3.55,39.77,39.77,0,0,0-4.39-6.31,4.66,4.66,0,0,0-.58-.6v0c.3,2.27,1.78,4.19,3.21,6a16.58,16.58,0,0,0-4.12-1.67C100,96.92,99,97,99,97.68a1.16,1.16,0,0,0,.49.78l3.86,3.46a12,12,0,0,0-4.86-.53,1.27,1.27,0,0,0-.76.26C97.24,102.13,97.76,103,98.37,103.38Z" transform="translate(-10.97 -14.08)" fill="#e0a194"></path><path d="M242.1,122.17A44.48,44.48,0,0,1,231.24,133,21.68,21.68,0,0,1,221,136.66a3.63,3.63,0,0,1-1.43-.16,3.84,3.84,0,0,1-2-1.36,11.35,11.35,0,0,1-2.62-6.45c-.25-6.2,6.47-9.81,6.47-9.81s15.3-4.88,17.12-4.08c1,.43,1.94,2.58,2.6,4.45C241.75,120.81,242.1,122.17,242.1,122.17Z" transform="translate(-10.97 -14.08)" fill="#fff"></path><rect x="139.83" y="93.26" width="22.97" height="54.09" rx="11.49" transform="translate(107.92 -84.35) rotate(41.86)" fill="#fff"></rect><path d="M137.44,124.31l-22.21-13.8-8.56,11.07s21.57,24.61,29.81,23.34,11.17-3.71,11.17-3.71S150.76,130.49,137.44,124.31Z" transform="translate(-10.97 -14.08)" fill="#fff"></path><path d="M242.1,122.17A44.48,44.48,0,0,1,231.24,133,21.68,21.68,0,0,1,221,136.66a3.63,3.63,0,0,1-1.43-.16,4.11,4.11,0,0,1-.65.18c-4.65.93-10.75-2.61-15-5.7l0-.1,1.44-9.3a36.66,36.66,0,0,0,9.59,7.11,13.72,13.72,0,0,0,8.22,1.52,8.52,8.52,0,0,0,2.21-.67,72.29,72.29,0,0,0,15.76-10.29C241.75,120.81,242.1,122.17,242.1,122.17Z" transform="translate(-10.97 -14.08)" fill="#020202" opacity="0.1"></path><path d="M209.32,278.59s-2.3,2.61-1.4,4.92,13.13,17.51,26.4,13.36S223.13,283,223.13,283Z" transform="translate(-10.97 -14.08)" fill="#68e1fd"></path><path d="M212.41,271.72a2.36,2.36,0,0,1,2.56,1.72c.6,2,3.61,5.55,7.33,5.93s6.47-3.09,8.19-2.51,8.11,11.51,7.45,15-6.16,4.33-11.42,2.86-15.65-9.12-16.92-12.6S210.62,273,212.41,271.72Z" transform="translate(-10.97 -14.08)" fill="#fff"></path><path d="M187.57,53.59a.73.73,0,0,1-1,.4,2.29,2.29,0,0,1-.88-.73,5,5,0,0,0-.11,3,3.88,3.88,0,0,1-.37,2.91c-.26.35-.62.6-.9.93a1.32,1.32,0,0,0-.41,1.17c.17.68,1.05.88,1.74.77a4.36,4.36,0,0,0,2.89-1.78,8.23,8.23,0,0,0,1.14-3.81c.14-1.17.36-2.23-.45-3.15-.22-.25-1.1-1.06-1.45-.9C187.28,52.59,187.68,53.14,187.57,53.59Z" transform="translate(-10.97 -14.08)" fill="#fff" opacity="0.33"></path><path d="M187.11,74.66c-.06.07-.13.14-.19.22a1.26,1.26,0,0,0,0,1.22,3.64,3.64,0,0,0,.79,1c.08.07.16.15.26.14s.21-.14.26-.26a7.17,7.17,0,0,0,.21-3.13c-.14-1.6-.33-3.16-.57-4.72a11.2,11.2,0,0,0-1-4.2,1.64,1.64,0,0,0-2-.63c-1.12.48-.39,1.72-.08,2.53a14.42,14.42,0,0,1,.54,3.07,4.84,4.84,0,0,0,1.16,2.85,6.73,6.73,0,0,1,.72.69.93.93,0,0,1,.17.94A1.14,1.14,0,0,1,187.11,74.66Z" transform="translate(-10.97 -14.08)" fill="#fff" opacity="0.33"></path><path d="M223.45,122.07a4.62,4.62,0,0,1-1.43.15,4.88,4.88,0,0,1-1.74-.67,18.83,18.83,0,0,1-3.59-2.32,6.45,6.45,0,0,1-2.19-3.57c2.76.77,5,3.34,7.85,3.32a9.24,9.24,0,0,0,2.68-.57l4.21-1.35c2.87-.91,5.86-1.84,8.83-1.4a.5.5,0,0,1,.32.14.39.39,0,0,1,.06.33c-.19,1.16-1.48,1.36-2.38,1.69-1.4.52-2.74,1.21-4.14,1.74A61.11,61.11,0,0,1,223.45,122.07Z" transform="translate(-10.97 -14.08)" fill="#fff" opacity="0.33"></path><path d="M191.56,105.48a37.05,37.05,0,0,1,6.14,14.2c.65,3.27.91,6.76,2.79,9.5,1.31-.8,1.53-2.58,1.54-4.11a89.58,89.58,0,0,0-1.65-15.2,32.52,32.52,0,0,0-1.74-7.09A16.48,16.48,0,0,0,186.46,93a1.26,1.26,0,0,0-1.77,1.58,12.93,12.93,0,0,0,4.55,8.13" transform="translate(-10.97 -14.08)" fill="#fff" opacity="0.33"></path><path d="M113.18,24V76.08c-34.93-5.76-57.74-15.27-57.74-26S78.25,29.78,113.18,24Z" transform="translate(-10.97 -14.08)" fill="url(#linear-gradient)"></path><path d="M153.17,80.6V280c-14.48-1-27.95-2.53-40-4.52-34.93-5.76-57.74-15.27-57.74-26V50.05c0,10.76,22.81,20.27,57.74,26C125.22,78.07,138.69,79.61,153.17,80.6Z" transform="translate(-10.97 -14.08)" fill="url(#linear-gradient-2)"></path><path d="M263.18,24V76.08c34.93-5.76,57.74-15.27,57.74-26S298.11,29.78,263.18,24Z" transform="translate(-10.97 -14.08)" fill="url(#linear-gradient-3)"></path><path d="M223.19,80.6V280c14.48-1,27.95-2.53,40-4.52,34.93-5.76,57.74-15.27,57.74-26V50.05c0,10.76-22.81,20.27-57.74,26C251.14,78.07,237.67,79.61,223.19,80.6Z" transform="translate(-10.97 -14.08)" fill="url(#linear-gradient-4)"></path><path d="M250.44,121.24V263.65c10.34-.71,20-1.81,28.56-3.23,24.95-4.11,41.24-10.9,41.24-18.59V99.42c0,7.69-16.29,14.48-41.24,18.59C270.41,119.43,260.78,120.53,250.44,121.24Z" transform="translate(-10.97 -14.08)" fill="url(#linear-gradient-5)"></path><path d="M263.18,108.06V250.47c10.34-.7,20-1.8,28.56-3.22,24.95-4.12,41.24-10.91,41.24-18.6V86.24c0,7.69-16.29,14.48-41.24,18.6C283.14,106.26,273.52,107.36,263.18,108.06Z" transform="translate(-10.97 -14.08)" fill="#fff"></path><path d="M263.18,108.06V250.47c10.34-.7,20-1.8,28.56-3.22,24.95-4.12,41.24-10.91,41.24-18.6V86.24c0,7.69-16.29,14.48-41.24,18.6C283.14,106.26,273.52,107.36,263.18,108.06Z" transform="translate(-10.97 -14.08)" fill="url(#linear-gradient-6)"></path><line x1="142.21" y1="275.11" x2="142.21" y2="265.91" fill="none"></line><line x1="142.21" y1="66.52" x2="142.21" y2="56.63" fill="none"></line><ellipse cx="73.21" cy="162.59" rx="20.93" ry="43.7" transform="translate(-22.28 -8.5) rotate(-4.05)" fill="#68e1fd"></ellipse><ellipse cx="73.21" cy="162.59" rx="20.93" ry="43.7" transform="translate(-22.28 -8.5) rotate(-4.05)" fill="#68e1fd"></ellipse><ellipse cx="73.21" cy="162.59" rx="20.93" ry="43.7" transform="translate(-22.28 -8.5) rotate(-4.05)" fill="#020202" opacity="0.29"></ellipse><path d="M86.3,184.64c-2.78,12.77-8.8,21.58-16.34,22.12-11.53.82-22.26-18-24-42.11s6.26-44.26,17.79-45.08,22.27,18,24,42.12A82,82,0,0,1,86.3,184.64Z" transform="translate(-10.97 -14.08)" fill="#68e1fd"></path><path d="M320.63,125.52l-.35-.93a33.52,33.52,0,0,0,7-3.43l.57.83A34.66,34.66,0,0,1,320.63,125.52Z" transform="translate(-10.97 -14.08)" fill="#68e1fd"></path><path d="M305.71,129.61l-.2-1c2.07-.44,4.08-.9,6-1.37l.25,1C309.82,128.72,307.8,129.18,305.71,129.61Z" transform="translate(-10.97 -14.08)" fill="#68e1fd"></path><path d="M279.42,133.49l-.09-1c.05,0,5.07-.44,11.89-1.4l.14,1C284.51,133,279.47,133.48,279.42,133.49Z" transform="translate(-10.97 -14.08)" fill="#68e1fd"></path><path d="M288.66,147.54l-.08-1s2.94-.23,7.2-.81c8.23-1.14,23.27-3.88,31.52-9.47l.57.82c-8.42,5.71-23.63,8.49-31.95,9.64C291.62,147.31,288.69,147.54,288.66,147.54Z" transform="translate(-10.97 -14.08)" fill="#68e1fd"></path><path d="M317.83,135l-.3-1a38.46,38.46,0,0,0,9.77-4.33l.57.82A39.15,39.15,0,0,1,317.83,135Z" transform="translate(-10.97 -14.08)" fill="#68e1fd"></path><path d="M302.16,138.55l-.11-1a88.24,88.24,0,0,0,11.54-2.36l.25,1A92,92,0,0,1,302.16,138.55Z" transform="translate(-10.97 -14.08)" fill="#68e1fd"></path><path d="M281.46,141l-.06-1c.07,0,6.53-.4,14.71-1.52l.13,1C288,140.61,281.53,141,281.46,141Z" transform="translate(-10.97 -14.08)" fill="#68e1fd"></path><path d="M290,162.45l-.08-1c.25,0,25.35-1.95,37.36-10.1l.57.83C315.63,160.47,291.06,162.37,290,162.45Z" transform="translate(-10.97 -14.08)" fill="#68e1fd"></path><path d="M290,155.52l-.08-1c.25,0,25.35-2,37.36-10.11l.57.83C315.63,153.54,291.06,155.44,290,155.52Z" transform="translate(-10.97 -14.08)" fill="#68e1fd"></path><path d="M279.4,178.77l0-1c.26,0,26.86-1.54,40.11-7.6l.42.9C306.45,177.22,279.67,178.75,279.4,178.77Z" transform="translate(-10.97 -14.08)" fill="#68e1fd"></path><path d="M291.32,192.46l-.07-1c.24,0,24-1.78,36.05-9.92l.57.82C315.63,190.66,291.56,192.44,291.32,192.46Z" transform="translate(-10.97 -14.08)" fill="#68e1fd"></path><path d="M291.32,185.13l-.07-1c.24,0,24-1.77,36.05-9.92l.57.83C315.63,183.34,291.56,185.12,291.32,185.13Z" transform="translate(-10.97 -14.08)" fill="#68e1fd"></path><path d="M279.4,206.08l0-1c.26,0,26.86-1.53,40.11-7.6l.42.91C306.45,204.54,279.67,206.07,279.4,206.08Z" transform="translate(-10.97 -14.08)" fill="#68e1fd"></path><path d="M291.32,219.77l-.07-1c.24,0,24-1.77,36.05-9.92l.57.83C315.63,218,291.56,219.75,291.32,219.77Z" transform="translate(-10.97 -14.08)" fill="#68e1fd"></path><path d="M291.32,212.45l-.07-1c.24,0,24-1.78,36.05-9.92l.57.82C315.63,210.65,291.56,212.43,291.32,212.45Z" transform="translate(-10.97 -14.08)" fill="#68e1fd"></path><path d="M86.3,184.64,63.78,159.78V119.57c11.53-.82,22.27,18,24,42.12A82,82,0,0,1,86.3,184.64Z" transform="translate(-10.97 -14.08)" fill="#68e1fd"></path><path d="M86.3,184.64,63.78,159.78V119.57c11.53-.82,22.27,18,24,42.12A82,82,0,0,1,86.3,184.64Z" transform="translate(-10.97 -14.08)" fill="#fff"></path><path d="M86.3,184.64,63.78,159.78V119.57c11.53-.82,22.27,18,24,42.12A82,82,0,0,1,86.3,184.64Z" transform="translate(-10.97 -14.08)" fill="#68e1fd"></path><path d="M86.3,184.64,63.78,159.78V119.57c11.53-.82,22.27,18,24,42.12A82,82,0,0,1,86.3,184.64Z" transform="translate(-10.97 -14.08)" fill="#020202" opacity="0.29"></path><path d="M158.71,284.59s-2.72,2.16-2.24,4.6S166.3,308.74,180.1,307s-8.57-15.59-8.57-15.59Z" transform="translate(-10.97 -14.08)" fill="#68e1fd"></path><path d="M163,278.38a2.37,2.37,0,0,1,2.22,2.14c.24,2.06,2.57,6.1,6.16,7.13s6.92-1.9,8.51-1,5.95,12.77,4.68,16.1-6.82,3.17-11.74.79-13.8-11.73-14.43-15.38S161,279.33,163,278.38Z" transform="translate(-10.97 -14.08)" fill="#fff"></path><path d="M63.78,119.57l8.13-.53s13.45-.5,20.17,28.54a81.26,81.26,0,0,1,.08,38.08l-5.86-1S91.79,125.45,63.78,119.57Z" transform="translate(-10.97 -14.08)" fill="#68e1fd"></path><path d="M63.78,119.57l8.13-.53s13.45-.5,20.17,28.54a81.26,81.26,0,0,1,.08,38.08l-5.86-1S91.79,125.45,63.78,119.57Z" transform="translate(-10.97 -14.08)" fill="#020202" opacity="0.62"></path></svg>